<svg id="visual" viewBox="0 0 960 540" width="960" height="540" xmlns="http://www.w3.org/2000/svg" xmlns:xlink="http://www.w3.org/1999/xlink" version="1.1"><rect x="0" y="0" width="960" height="540" fill="#001220"></rect><path d="M0 351L22.8 348.2C45.7 345.3 91.3 339.7 137 346.7C182.7 353.7 228.3 373.3 274 381.7C319.7 390 365.3 387 411.2 387.8C457 388.7 503 393.3 548.8 391.5C594.7 389.7 640.3 381.3 686 382.2C731.7 383 777.3 393 823 390C868.7 387 914.3 371 937.2 363L960 355L960 541L937.2 541C914.3 541 868.7 541 823 541C777.3 541 731.7 541 686 541C640.3 541 594.7 541 548.8 541C503 541 457 541 411.2 541C365.3 541 319.7 541 274 541C228.3 541 182.7 541 137 541C91.3 541 45.7 541 22.8 541L0 541Z" fill="#fa7268"></path><path d="M0 373L22.8 378.5C45.7 384 91.3 395 137 394.7C182.7 394.3 228.3 382.7 274 375C319.7 367.3 365.3 363.7 411.2 364.7C457 365.7 503 371.3 548.8 377.8C594.7 384.3 640.3 391.7 686 394C731.7 396.3 777.3 393.7 823 398.7C868.7 403.7 914.3 416.3 937.2 422.7L960 429L960 541L937.2 541C914.3 541 868.7 541 823 541C777.3 541 731.7 541 686 541C640.3 541 594.7 541 548.8 541C503 541 457 541 411.2 541C365.3 541 319.7 541 274 541C228.3 541 182.7 541 137 541C91.3 541 45.7 541 22.8 541L0 541Z" fill="#ef5f67"></path><path d="M0 453L22.8 450.3C45.7 447.7 91.3 442.3 137 439.8C182.7 437.3 228.3 437.7 274 430.5C319.7 423.3 365.3 408.7 411.2 406.5C457 404.3 503 414.7 548.8 417.2C594.7 419.7 640.3 414.3 686 412.7C731.7 411 777.3 413 823 418.7C868.7 424.3 914.3 433.7 937.2 438.3L960 443L960 541L937.2 541C914.3 541 868.7 541 823 541C777.3 541 731.7 541 686 541C640.3 541 594.7 541 548.8 541C503 541 457 541 411.2 541C365.3 541 319.7 541 274 541C228.3 541 182.7 541 137 541C91.3 541 45.7 541 22.8 541L0 541Z" fill="#e34c67"></path><path d="M0 477L22.8 474.8C45.7 472.7 91.3 468.3 137 468.3C182.7 468.3 228.3 472.7 274 473.7C319.7 474.7 365.3 472.3 411.2 470.5C457 468.7 503 467.3 548.8 467.3C594.7 467.3 640.3 468.7 686 467.3C731.7 466 777.3 462 823 457C868.7 452 914.3 446 937.2 443L960 440L960 541L937.2 541C914.3 541 868.7 541 823 541C777.3 541 731.7 541 686 541C640.3 541 594.7 541 548.8 541C503 541 457 541 411.2 541C365.3 541 319.7 541 274 541C228.3 541 182.7 541 137 541C91.3 541 45.7 541 22.8 541L0 541Z" fill="#d53867"></path><path d="M0 472L22.8 474.5C45.7 477 91.3 482 137 483.8C182.7 485.7 228.3 484.3 274 484.8C319.7 485.3 365.3 487.7 411.2 490.3C457 493 503 496 548.8 495.3C594.7 494.7 640.3 490.3 686 489.2C731.7 488 777.3 490 823 488.3C868.7 486.7 914.3 481.3 937.2 478.7L960 476L960 541L937.2 541C914.3 541 868.7 541 823 541C777.3 541 731.7 541 686 541C640.3 541 594.7 541 548.8 541C503 541 457 541 411.2 541C365.3 541 319.7 541 274 541C228.3 541 182.7 541 137 541C91.3 541 45.7 541 22.8 541L0 541Z" fill="#c62368"></path></svg>